<!DOCTYPE svg PUBLIC "-//W3C//DTD SVG 1.1//EN" "http://www.w3.org/Graphics/SVG/1.1/DTD/svg11.dtd">

<!-- Uploaded to: SVG Repo, www.svgrepo.com, Transformed by: SVG Repo Mixer Tools -->
<svg width="800px" height="800px" viewBox="-0.5 0 20 20" version="1.1" xmlns="http://www.w3.org/2000/svg" xmlns:xlink="http://www.w3.org/1999/xlink" fill="black">

<g id="SVGRepo_bgCarrier" stroke-width="0"/>

<g id="SVGRepo_tracerCarrier" stroke-linecap="round" stroke-linejoin="round"/>

<g id="SVGRepo_iconCarrier"> <title>twitch [#182]</title> <desc>Created with Sketch.</desc> <defs> </defs> <g id="Page-1" stroke="none" stroke-width="1" fill="none" fill-rule="evenodd"> <g id="Dribbble-Light-Preview" transform="translate(-141.000000, -7399.000000)" fill="black"> <g id="icons" transform="translate(56.000000, 160.000000)"> <path d="M97,7249 L99,7249 L99,7244 L97,7244 L97,7249 Z M92,7249 L94,7249 L94,7244 L92,7244 L92,7249 Z M102,7250.307 L102,7241 L88,7241 L88,7253 L92,7253 L92,7255.953 L94.56,7253 L99.34,7253 L102,7250.307 Z M98.907,7256 L94.993,7256 L92.387,7259 L90,7259 L90,7256 L85,7256 L85,7242.48 L86.3,7239 L104,7239 L104,7251.173 L98.907,7256 Z" id="twitch-[#182]"> </path> </g> </g> </g> </g>

</svg>