
<svg id="magicoon-Filled" xmlns="http://www.w3.org/2000/svg" viewBox="0 0 24 24"><defs><style>.cls-1{fill:#f1f1f1;}</style></defs><title>chart-pie</title><g id="chart-pie-Filled"><path id="chart-pie-Filled-2" data-name="chart-pie-Filled" class="cls-1" d="M21.95,9.931A10.045,10.045,0,0,0,14.069,2.05a2.507,2.507,0,0,0-3,2.457V9.931a3,3,0,0,0,3,3h5.424a2.507,2.507,0,0,0,2.457-3Zm-2.065.813a.5.5,0,0,1-.392.187H14.069a1,1,0,0,1-1-1V4.507a.509.509,0,0,1,.5-.507.476.476,0,0,1,.1.011,8.046,8.046,0,0,1,6.314,6.314A.5.5,0,0,1,19.885,10.744Zm-.148,4.194a1.021,1.021,0,0,1,.1.954A8.925,8.925,0,0,1,11.509,21.5a9.412,9.412,0,0,1-.96-.05,9.113,9.113,0,0,1-8-8A8.944,8.944,0,0,1,8.108,4.165a1.026,1.026,0,0,1,.954.1,1,1,0,0,1,.438.825V12A2.5,2.5,0,0,0,12,14.5h6.912A1,1,0,0,1,19.737,14.938Z"/></g></svg>