<svg id="magicoon-Filled" xmlns="http://www.w3.org/2000/svg" viewBox="0 0 24 24"><defs><style>.cls-1{fill:#f1f1f1;}</style></defs><title>compass</title><g id="compass-Filled"><path id="compass-Filled-2" data-name="compass-Filled" class="cls-1" d="M13.5,12A1.5,1.5,0,1,1,12,10.5,1.5,1.5,0,0,1,13.5,12Zm8,0A9.5,9.5,0,1,1,12,2.5,9.509,9.509,0,0,1,21.5,12ZM16.69,7.31a1.508,1.508,0,0,0-1.43-.39L11.21,7.93a4.512,4.512,0,0,0-3.28,3.28L6.92,15.26a1.508,1.508,0,0,0,.39,1.43,1.534,1.534,0,0,0,1.06.44,1.568,1.568,0,0,0,.37-.05l4.05-1.01a4.512,4.512,0,0,0,3.28-3.28l1.01-4.05A1.508,1.508,0,0,0,16.69,7.31Z"/></g></svg>