<svg id="magicoon-Filled" xmlns="http://www.w3.org/2000/svg" viewBox="0 0 24 24"><defs><style>.cls-1{fill:#f1f1f1;}</style></defs><title>globe</title><g id="globe-Filled"><path id="globe-Filled-2" data-name="globe-Filled" class="cls-1" d="M21.424,8.669A9.936,9.936,0,0,0,13.431,2.1a10.322,10.322,0,0,0-2.863,0A9.93,9.93,0,0,0,2.58,8.66a9.913,9.913,0,0,0,0,6.671A9.936,9.936,0,0,0,10.569,21.9a10.3,10.3,0,0,0,2.863,0,9.93,9.93,0,0,0,7.988-6.56,9.913,9.913,0,0,0,0-6.671ZM20,12a7.832,7.832,0,0,1-.257,2H16.865A16.728,16.728,0,0,0,17,12a16.667,16.667,0,0,0-.135-2h2.879A7.838,7.838,0,0,1,20,12ZM9.154,14A14.556,14.556,0,0,1,9,12a14.576,14.576,0,0,1,.154-2h5.692A14.527,14.527,0,0,1,15,12a14.764,14.764,0,0,1-.154,2Zm-4.9,0a7.94,7.94,0,0,1,0-4H7.135A16.7,16.7,0,0,0,7,12a16.686,16.686,0,0,0,.135,2ZM18.909,8H16.5a16.5,16.5,0,0,0-1.146-3.266A7.906,7.906,0,0,1,18.909,8ZM12.7,4.049A14.566,14.566,0,0,1,14.445,8H9.555A14.555,14.555,0,0,1,11.3,4.049c.233-.02.464-.049.7-.049S12.469,4.029,12.7,4.049Zm-4.053.685A16.479,16.479,0,0,0,7.5,8H5.089A7.916,7.916,0,0,1,8.649,4.734ZM5.092,16H7.5a16.423,16.423,0,0,0,1.147,3.264A7.907,7.907,0,0,1,5.092,16Zm6.205,3.95A14.575,14.575,0,0,1,9.556,16h4.889a14.591,14.591,0,0,1-1.743,3.95A8.451,8.451,0,0,1,11.3,19.951Zm4.055-.685A16.432,16.432,0,0,0,16.5,16h2.411A7.9,7.9,0,0,1,15.352,19.266Z"/></g></svg>