<svg id="magicoon-Filled" xmlns="http://www.w3.org/2000/svg" viewBox="0 0 24 24"><defs><style>.cls-1{fill:#f1f1f1;}</style></defs><title>image</title><g id="image-Filled"><path id="image-Filled-2" data-name="image-Filled" class="cls-1" d="M17,3H7A5.006,5.006,0,0,0,2,8v8a5.006,5.006,0,0,0,5,5H17a5.006,5.006,0,0,0,5-5V8A5.006,5.006,0,0,0,17,3ZM7,5H17a3,3,0,0,1,3,3v4.586L16.417,9a2.007,2.007,0,0,0-2.834,0L9,13.586,8.417,13a2.007,2.007,0,0,0-2.834,0L4,14.586V8A3,3,0,0,1,7,5ZM6.5,9A1.5,1.5,0,1,1,8,10.5,1.5,1.5,0,0,1,6.5,9Z"/></g></svg>