<svg id="magicoon-Filled" xmlns="http://www.w3.org/2000/svg" viewBox="0 0 24 24"><defs><style>.cls-1{fill:#f1f1f1;}</style></defs><title>envelope</title><g id="envelope-Filled"><path id="envelope-Filled-2" data-name="envelope-Filled" class="cls-1" d="M10.36,11.71,3.19,6.62A4.5,4.5,0,0,1,7,4.5H17a4.5,4.5,0,0,1,3.81,2.11l-7.15,5.08A3,3,0,0,1,10.36,11.71ZM21.48,8.6,14.8,13.34a5.082,5.082,0,0,1-2.81.85,4.968,4.968,0,0,1-2.76-.84L2.52,8.6c-.01.13-.02.27-.02.4v6A4.507,4.507,0,0,0,7,19.5H17A4.507,4.507,0,0,0,21.5,15V9C21.5,8.87,21.49,8.73,21.48,8.6Z"/></g></svg>