<svg id="magicoon-Filled" xmlns="http://www.w3.org/2000/svg" viewBox="0 0 24 24"><defs><style>.cls-1{fill:#f1f1f1;}</style></defs><title>settings</title><g id="settings-Filled"><path id="settings-Filled-2" data-name="settings-Filled" class="cls-1" d="M20.33,9.78H20.3a1.207,1.207,0,0,1-1.11-.75.01.01,0,0,0-.01-.01,1.218,1.218,0,0,1,.26-1.31l.03-.03a1.672,1.672,0,0,0,0-2.36l-.79-.78a1.672,1.672,0,0,0-2.36,0l-.01.02a1.233,1.233,0,0,1-1.33.25,1.192,1.192,0,0,1-.76-1.11V3.67A1.664,1.664,0,0,0,12.56,2H11.44A1.664,1.664,0,0,0,9.78,3.67V3.7a1.2,1.2,0,0,1-.75,1.11,1.149,1.149,0,0,1-.48.1,1.2,1.2,0,0,1-.85-.35l-.02-.02a1.672,1.672,0,0,0-2.36,0l-.79.78a1.672,1.672,0,0,0,0,2.36l.03.03A1.217,1.217,0,0,1,3.7,9.78H3.67A1.673,1.673,0,0,0,2,11.45v1.11a1.673,1.673,0,0,0,1.67,1.67H3.7a1.182,1.182,0,0,1,1.11.75,1.248,1.248,0,0,1-.25,1.33l-.02.01a1.684,1.684,0,0,0,0,2.37l.78.78a1.672,1.672,0,0,0,2.36,0l.02-.02a1.186,1.186,0,0,1,1.31-.26,1.214,1.214,0,0,1,.77,1.12v.03A1.656,1.656,0,0,0,11.44,22h1.12a1.656,1.656,0,0,0,1.66-1.66v-.03a1.214,1.214,0,0,1,.77-1.12,1.186,1.186,0,0,1,1.31.26l.02.02a1.672,1.672,0,0,0,2.36,0l.78-.78a1.684,1.684,0,0,0,0-2.37l-.02-.01a1.248,1.248,0,0,1-.25-1.33,1.182,1.182,0,0,1,1.11-.75h.03A1.673,1.673,0,0,0,22,12.56V11.45A1.673,1.673,0,0,0,20.33,9.78ZM12,15.5A3.5,3.5,0,1,1,15.5,12,3.5,3.5,0,0,1,12,15.5Z"/></g></svg>